<svg width="168" height="32" viewBox="0 0 168 32" fill="none" xmlns="http://www.w3.org/2000/svg">
<path d="M3.00202 23.4805C1.98245 23.4805 1.20164 23.114 0.659611 22.381C0.117578 21.648 -0.0903947 20.8 0.0356928 19.837L1.05743 12.3793C1.22733 11.2606 1.73231 10.3376 2.57236 9.61036C3.41242 8.88315 4.39368 8.51954 5.51615 8.51954H15.3879C16.5104 8.51954 17.4916 8.88315 18.3317 9.61036C19.1717 10.3376 19.6767 11.2606 19.8466 12.3793L20.8683 19.837C20.9944 20.8094 20.7794 21.6598 20.2232 22.3881C19.6671 23.1163 18.8973 23.4805 17.9138 23.4805C17.5088 23.4805 17.1257 23.4062 16.7645 23.2576C16.4033 23.1091 16.0788 22.891 15.7911 22.6033L13.6676 20.4805H7.24986L5.12704 22.6033C4.83935 22.891 4.5149 23.1091 4.15366 23.2576C3.79243 23.4062 3.40855 23.4805 3.00202 23.4805V23.4805M15.3814 16.9152C15.6647 16.9152 15.9022 16.8194 16.0939 16.6277C16.2855 16.436 16.3814 16.1985 16.3814 15.9152C16.3814 15.6319 16.2855 15.3944 16.0939 15.2027C15.9022 15.011 15.6647 14.9152 15.3814 14.9152C15.098 14.9152 14.8605 15.011 14.6689 15.2027C14.4772 15.3944 14.3814 15.6319 14.3814 15.9152C14.3814 16.1985 14.4772 16.436 14.6689 16.6277C14.8605 16.8194 15.098 16.9152 15.3814 16.9152V16.9152M13.5227 14.0707C13.806 14.0707 14.0435 13.9748 14.2352 13.7832C14.4268 13.5915 14.5227 13.354 14.5227 13.0707C14.5227 12.7873 14.4268 12.5498 14.2352 12.3582C14.0435 12.1665 13.806 12.0707 13.5227 12.0707C13.2393 12.0707 13.0018 12.1665 12.8102 12.3582C12.6185 12.5498 12.5227 12.7873 12.5227 13.0707C12.5227 13.354 12.6185 13.5915 12.8102 13.7832C13.0018 13.9748 13.2393 14.0707 13.5227 14.0707V14.0707M6.21615 16.887H7.71615V15.25H9.3531V13.75H7.71615V12.113H6.21615V13.75H4.56507V15.25H6.21615V16.887V16.887" fill="#B5FF3A"/>
<path d="M39.2113 24.456C37.7073 24.456 36.3833 24.206 35.2393 23.706C34.0953 23.206 33.1373 22.528 32.3653 21.672C31.5933 20.816 31.0113 19.846 30.6193 18.762C30.2273 17.678 30.0313 16.556 30.0313 15.396V14.868C30.0313 13.764 30.2213 12.684 30.6013 11.628C30.9813 10.572 31.5433 9.618 32.2873 8.766C33.0313 7.914 33.9513 7.236 35.0473 6.732C36.1433 6.228 37.4033 5.976 38.8273 5.976C40.3633 5.976 41.7253 6.262 42.9133 6.834C44.1013 7.406 45.0553 8.2 45.7753 9.216C46.4953 10.232 46.9153 11.408 47.0353 12.744H43.6033C43.4993 11.992 43.2233 11.348 42.7753 10.812C42.3273 10.276 41.7633 9.864 41.0833 9.576C40.4033 9.288 39.6513 9.144 38.8273 9.144C38.0113 9.144 37.2733 9.288 36.6133 9.576C35.9533 9.864 35.3913 10.274 34.9273 10.806C34.4633 11.338 34.1073 11.972 33.8593 12.708C33.6113 13.444 33.4873 14.26 33.4873 15.156C33.4873 16.124 33.6213 16.992 33.8893 17.76C34.1573 18.528 34.5393 19.18 35.0353 19.716C35.5313 20.252 36.1333 20.66 36.8413 20.94C37.5493 21.22 38.3393 21.36 39.2113 21.36C40.3873 21.36 41.4133 21.118 42.2893 20.634C43.1653 20.15 43.8073 19.516 44.2153 18.732L43.6153 21.48V16.968H46.7593V20.856C45.9993 22 44.9733 22.886 43.6813 23.514C42.3893 24.142 40.8993 24.456 39.2113 24.456ZM38.6593 17.64V15.096H48.2233V17.64H38.6593ZM57.4513 24V20.136H56.8993V15.84C56.8993 15.096 56.7153 14.538 56.3473 14.166C55.9793 13.794 55.4153 13.608 54.6553 13.608C54.2553 13.608 53.7753 13.616 53.2153 13.632C52.6553 13.648 52.0913 13.668 51.5233 13.692C50.9553 13.716 50.4473 13.744 49.9993 13.776V10.944C50.3673 10.912 50.7813 10.882 51.2413 10.854C51.7013 10.826 52.1773 10.806 52.6693 10.794C53.1613 10.782 53.6233 10.776 54.0553 10.776C55.3913 10.776 56.5053 10.954 57.3973 11.31C58.2893 11.666 58.9613 12.22 59.4133 12.972C59.8653 13.724 60.0913 14.708 60.0913 15.924V24H57.4513ZM53.2513 24.336C52.3073 24.336 51.4813 24.17 50.7733 23.838C50.0653 23.506 49.5153 23.026 49.1233 22.398C48.7313 21.77 48.5353 21.016 48.5353 20.136C48.5353 19.184 48.7693 18.402 49.2373 17.79C49.7053 17.178 50.3673 16.722 51.2233 16.422C52.0793 16.122 53.0833 15.972 54.2353 15.972H57.2593V17.964H54.1873C53.4273 17.964 52.8433 18.15 52.4353 18.522C52.0273 18.894 51.8233 19.38 51.8233 19.98C51.8233 20.572 52.0273 21.05 52.4353 21.414C52.8433 21.778 53.4273 21.96 54.1873 21.96C54.6513 21.96 55.0813 21.876 55.4773 21.708C55.8733 21.54 56.2013 21.254 56.4613 20.85C56.7213 20.446 56.8673 19.888 56.8993 19.176L57.7153 20.112C57.6353 21.024 57.4153 21.792 57.0553 22.416C56.6953 23.04 56.1993 23.516 55.5673 23.844C54.9353 24.172 54.1633 24.336 53.2513 24.336ZM62.4793 24V10.968H65.1193V16.572H64.8793C64.8793 15.26 65.0473 14.16 65.3833 13.272C65.7193 12.384 66.2193 11.71 66.8833 11.25C67.5473 10.79 68.3753 10.56 69.3673 10.56H69.5113C70.5113 10.56 71.3433 10.79 72.0073 11.25C72.6713 11.71 73.1693 12.384 73.5013 13.272C73.8333 14.16 73.9993 15.26 73.9993 16.572H73.1593C73.1593 15.26 73.3293 14.16 73.6693 13.272C74.0093 12.384 74.5133 11.71 75.1813 11.25C75.8493 10.79 76.6793 10.56 77.6713 10.56H77.8153C78.8153 10.56 79.6533 10.79 80.3293 11.25C81.0053 11.71 81.5153 12.384 81.8593 13.272C82.2033 14.16 82.3753 15.26 82.3753 16.572V24H79.0393V16.26C79.0393 15.436 78.8293 14.78 78.4093 14.292C77.9893 13.804 77.3993 13.56 76.6393 13.56C75.8633 13.56 75.2453 13.812 74.7853 14.316C74.3253 14.82 74.0953 15.5 74.0953 16.356V24H70.7593V16.26C70.7593 15.436 70.5493 14.78 70.1293 14.292C69.7093 13.804 69.1193 13.56 68.3593 13.56C67.5833 13.56 66.9653 13.812 66.5053 14.316C66.0453 14.82 65.8153 15.5 65.8153 16.356V24H62.4793ZM90.5833 24.456C89.4633 24.456 88.4833 24.264 87.6433 23.88C86.8033 23.496 86.1073 22.982 85.5553 22.338C85.0033 21.694 84.5873 20.972 84.3073 20.172C84.0273 19.372 83.8873 18.552 83.8873 17.712V17.256C83.8873 16.392 84.0273 15.558 84.3073 14.754C84.5873 13.95 85.0013 13.23 85.5493 12.594C86.0973 11.958 86.7813 11.452 87.6013 11.076C88.4213 10.7 89.3673 10.512 90.4393 10.512C91.8473 10.512 93.0253 10.822 93.9733 11.442C94.9213 12.062 95.6373 12.87 96.1213 13.866C96.6053 14.862 96.8473 15.936 96.8473 17.088V18.3H85.3033V16.26H94.7473L93.7273 17.256C93.7273 16.424 93.6053 15.712 93.3613 15.12C93.1173 14.528 92.7533 14.072 92.2693 13.752C91.7853 13.432 91.1753 13.272 90.4393 13.272C89.6953 13.272 89.0673 13.442 88.5553 13.782C88.0433 14.122 87.6573 14.606 87.3973 15.234C87.1373 15.862 87.0073 16.616 87.0073 17.496C87.0073 18.32 87.1333 19.048 87.3853 19.68C87.6373 20.312 88.0273 20.806 88.5553 21.162C89.0833 21.518 89.7593 21.696 90.5833 21.696C91.3913 21.696 92.0513 21.532 92.5633 21.204C93.0753 20.876 93.4033 20.476 93.5473 20.004H96.6193C96.4353 20.892 96.0693 21.672 95.5213 22.344C94.9733 23.016 94.2813 23.536 93.4453 23.904C92.6093 24.272 91.6553 24.456 90.5833 24.456ZM102.151 24V9H105.559V24H102.151ZM97.0873 9.48V6.48H110.623V9.48H97.0873ZM111.103 24V10.968H113.743V16.488H113.671C113.671 14.624 114.071 13.21 114.871 12.246C115.671 11.282 116.847 10.8 118.399 10.8H118.879V13.704H117.967C116.839 13.704 115.969 14.006 115.357 14.61C114.745 15.214 114.439 16.084 114.439 17.22V24H111.103ZM127.723 24V20.136H127.171V15.84C127.171 15.096 126.987 14.538 126.619 14.166C126.251 13.794 125.687 13.608 124.927 13.608C124.527 13.608 124.047 13.616 123.487 13.632C122.927 13.648 122.363 13.668 121.795 13.692C121.227 13.716 120.719 13.744 120.271 13.776V10.944C120.639 10.912 121.053 10.882 121.513 10.854C121.973 10.826 122.449 10.806 122.941 10.794C123.433 10.782 123.895 10.776 124.327 10.776C125.663 10.776 126.777 10.954 127.669 11.31C128.561 11.666 129.233 12.22 129.685 12.972C130.137 13.724 130.363 14.708 130.363 15.924V24H127.723ZM123.523 24.336C122.579 24.336 121.753 24.17 121.045 23.838C120.337 23.506 119.787 23.026 119.395 22.398C119.003 21.77 118.807 21.016 118.807 20.136C118.807 19.184 119.041 18.402 119.509 17.79C119.977 17.178 120.639 16.722 121.495 16.422C122.351 16.122 123.355 15.972 124.507 15.972H127.531V17.964H124.459C123.699 17.964 123.115 18.15 122.707 18.522C122.299 18.894 122.095 19.38 122.095 19.98C122.095 20.572 122.299 21.05 122.707 21.414C123.115 21.778 123.699 21.96 124.459 21.96C124.923 21.96 125.353 21.876 125.749 21.708C126.145 21.54 126.473 21.254 126.733 20.85C126.993 20.446 127.139 19.888 127.171 19.176L127.987 20.112C127.907 21.024 127.687 21.792 127.327 22.416C126.967 23.04 126.471 23.516 125.839 23.844C125.207 24.172 124.435 24.336 123.523 24.336ZM138.523 24.456C137.395 24.456 136.417 24.266 135.589 23.886C134.761 23.506 134.073 22.994 133.525 22.35C132.977 21.706 132.567 20.984 132.295 20.184C132.023 19.384 131.887 18.568 131.887 17.736V17.28C131.887 16.408 132.027 15.568 132.307 14.76C132.587 13.952 133.005 13.23 133.561 12.594C134.117 11.958 134.807 11.452 135.631 11.076C136.455 10.7 137.411 10.512 138.499 10.512C139.643 10.512 140.661 10.732 141.553 11.172C142.445 11.612 143.159 12.224 143.695 13.008C144.231 13.792 144.531 14.704 144.595 15.744H141.355C141.275 15.08 140.993 14.522 140.509 14.07C140.025 13.618 139.355 13.392 138.499 13.392C137.763 13.392 137.153 13.568 136.669 13.92C136.185 14.272 135.823 14.756 135.583 15.372C135.343 15.988 135.223 16.7 135.223 17.508C135.223 18.276 135.337 18.97 135.565 19.59C135.793 20.21 136.151 20.696 136.639 21.048C137.127 21.4 137.755 21.576 138.523 21.576C139.107 21.576 139.607 21.472 140.023 21.264C140.439 21.056 140.771 20.77 141.019 20.406C141.267 20.042 141.419 19.624 141.475 19.152H144.715C144.659 20.216 144.355 21.144 143.803 21.936C143.251 22.728 142.521 23.346 141.613 23.79C140.705 24.234 139.675 24.456 138.523 24.456ZM155.311 24L150.943 17.916H148.999L154.531 10.968H158.023L152.899 17.376L152.983 15.708L159.079 24H155.311ZM146.191 24V6.48H149.527V24H146.191ZM159.799 24V10.968H162.439V16.488H162.367C162.367 14.624 162.767 13.21 163.567 12.246C164.367 11.282 165.543 10.8 167.095 10.8H167.575V13.704H166.663C165.535 13.704 164.665 14.006 164.053 14.61C163.441 15.214 163.135 16.084 163.135 17.22V24H159.799Z" fill="white"/>
</svg>
