<svg width="350" height="164" viewBox="0 0 350 164" fill="none" xmlns="http://www.w3.org/2000/svg">
<g filter="url(#filter0_d_2_16)">
<rect x="135" y="20" width="80" height="80" rx="12" fill="#B5FF3A" shape-rendering="crispEdges"/>
<path d="M159 72C157.9 72 156.958 71.6083 156.175 70.825C155.392 70.0417 155 69.1 155 68V52C155 50.9 155.392 49.9583 156.175 49.175C156.958 48.3917 157.9 48 159 48H191C192.1 48 193.042 48.3917 193.825 49.175C194.608 49.9583 195 50.9 195 52V68C195 69.1 194.608 70.0417 193.825 70.825C193.042 71.6083 192.1 72 191 72H159V72M165 66H169V62H173V58H169V54H165V58H161V62H165V66V66M180 66C180.833 66 181.542 65.7083 182.125 65.125C182.708 64.5417 183 63.8333 183 63C183 62.1667 182.708 61.4583 182.125 60.875C181.542 60.2917 180.833 60 180 60C179.167 60 178.458 60.2917 177.875 60.875C177.292 61.4583 177 62.1667 177 63C177 63.8333 177.292 64.5417 177.875 65.125C178.458 65.7083 179.167 66 180 66V66M186 60C186.833 60 187.542 59.7083 188.125 59.125C188.708 58.5417 189 57.8333 189 57C189 56.1667 188.708 55.4583 188.125 54.875C187.542 54.2917 186.833 54 186 54C185.167 54 184.458 54.2917 183.875 54.875C183.292 55.4583 183 56.1667 183 57C183 57.8333 183.292 58.5417 183.875 59.125C184.458 59.7083 185.167 60 186 60V60" fill="black"/>
</g>
<path d="M73.9 154.8C71.1533 154.8 68.7933 154.34 66.82 153.42C64.8467 152.5 63.2333 151.293 61.98 149.8C60.7267 148.307 59.8067 146.68 59.22 144.92C58.6333 143.16 58.34 141.44 58.34 139.76V138.88C58.34 137.067 58.6467 135.273 59.26 133.5C59.8733 131.727 60.8 130.12 62.04 128.68C63.28 127.24 64.8333 126.087 66.7 125.22C68.5667 124.353 70.7533 123.92 73.26 123.92C75.9533 123.92 78.3333 124.413 80.4 125.4C82.4667 126.387 84.1267 127.753 85.38 129.5C86.6333 131.247 87.3667 133.267 87.58 135.56H80.14C79.98 134.68 79.5933 133.887 78.98 133.18C78.3667 132.473 77.5733 131.913 76.6 131.5C75.6267 131.087 74.5133 130.88 73.26 130.88C72.06 130.88 71 131.087 70.08 131.5C69.16 131.913 68.3867 132.5 67.76 133.26C67.1333 134.02 66.66 134.92 66.34 135.96C66.02 137 65.86 138.133 65.86 139.36C65.86 140.587 66.0333 141.727 66.38 142.78C66.7267 143.833 67.2333 144.753 67.9 145.54C68.5667 146.327 69.4067 146.933 70.42 147.36C71.4333 147.787 72.5933 148 73.9 148C75.5533 148 76.98 147.653 78.18 146.96C79.38 146.267 80.22 145.347 80.7 144.2L80.14 148.6V142.24H86.94V148.24C85.7133 150.347 83.9733 151.967 81.72 153.1C79.4667 154.233 76.86 154.8 73.9 154.8ZM73.1 143.68V138.48H89.34V143.68H73.1ZM104.14 154V147.52H102.94V140.6C102.94 139.587 102.707 138.833 102.24 138.34C101.773 137.847 101.007 137.6 99.94 137.6C99.4333 137.6 98.6867 137.613 97.7 137.64C96.7133 137.667 95.6733 137.707 94.58 137.76C93.4867 137.813 92.4867 137.867 91.58 137.92V131.84C92.22 131.787 92.98 131.733 93.86 131.68C94.74 131.627 95.6533 131.587 96.6 131.56C97.5467 131.533 98.42 131.52 99.22 131.52C101.487 131.52 103.413 131.853 105 132.52C106.587 133.187 107.8 134.187 108.64 135.52C109.48 136.853 109.9 138.547 109.9 140.6V154H104.14ZM97.14 154.56C95.5933 154.56 94.22 154.28 93.02 153.72C91.82 153.16 90.88 152.353 90.2 151.3C89.52 150.247 89.18 148.987 89.18 147.52C89.18 145.867 89.62 144.527 90.5 143.5C91.38 142.473 92.5933 141.72 94.14 141.24C95.6867 140.76 97.46 140.52 99.46 140.52H103.74V144.28H99.46C98.4733 144.28 97.7133 144.527 97.18 145.02C96.6467 145.513 96.38 146.173 96.38 147C96.38 147.8 96.6467 148.447 97.18 148.94C97.7133 149.433 98.4733 149.68 99.46 149.68C100.1 149.68 100.667 149.567 101.16 149.34C101.653 149.113 102.06 148.72 102.38 148.16C102.7 147.6 102.887 146.827 102.94 145.84L104.62 147.44C104.487 148.96 104.12 150.247 103.52 151.3C102.92 152.353 102.093 153.16 101.04 153.72C99.9867 154.28 98.6867 154.56 97.14 154.56ZM112.78 154V131.92H118.54V141.44H118.22C118.22 139.147 118.507 137.247 119.08 135.74C119.653 134.233 120.5 133.1 121.62 132.34C122.74 131.58 124.113 131.2 125.74 131.2H126.06C127.713 131.2 129.093 131.58 130.2 132.34C131.307 133.1 132.147 134.233 132.72 135.74C133.293 137.247 133.58 139.147 133.58 141.44H131.9C131.9 139.147 132.187 137.247 132.76 135.74C133.333 134.233 134.18 133.1 135.3 132.34C136.42 131.58 137.793 131.2 139.42 131.2H139.74C141.393 131.2 142.787 131.58 143.92 132.34C145.053 133.1 145.92 134.233 146.52 135.74C147.12 137.247 147.42 139.147 147.42 141.44V154H140.14V141.24C140.14 140.227 139.867 139.38 139.32 138.7C138.773 138.02 137.993 137.68 136.98 137.68C135.967 137.68 135.173 138.02 134.6 138.7C134.027 139.38 133.74 140.253 133.74 141.32V154H126.46V141.24C126.46 140.227 126.187 139.38 125.64 138.7C125.093 138.02 124.313 137.68 123.3 137.68C122.287 137.68 121.493 138.02 120.92 138.7C120.347 139.38 120.06 140.253 120.06 141.32V154H112.78ZM160.66 154.8C158.793 154.8 157.14 154.48 155.7 153.84C154.26 153.2 153.047 152.333 152.06 151.24C151.073 150.147 150.32 148.92 149.8 147.56C149.28 146.2 149.02 144.8 149.02 143.36V142.56C149.02 141.067 149.28 139.633 149.8 138.26C150.32 136.887 151.067 135.667 152.04 134.6C153.013 133.533 154.207 132.687 155.62 132.06C157.033 131.433 158.633 131.12 160.42 131.12C162.793 131.12 164.807 131.653 166.46 132.72C168.113 133.787 169.38 135.193 170.26 136.94C171.14 138.687 171.58 140.587 171.58 142.64V144.96H152.06V141.04H167.38L164.86 142.8C164.86 141.547 164.693 140.487 164.36 139.62C164.027 138.753 163.533 138.093 162.88 137.64C162.227 137.187 161.407 136.96 160.42 136.96C159.46 136.96 158.627 137.18 157.92 137.62C157.213 138.06 156.673 138.727 156.3 139.62C155.927 140.513 155.74 141.64 155.74 143C155.74 144.227 155.913 145.287 156.26 146.18C156.607 147.073 157.14 147.76 157.86 148.24C158.58 148.72 159.513 148.96 160.66 148.96C161.673 148.96 162.507 148.787 163.16 148.44C163.813 148.093 164.273 147.627 164.54 147.04H171.18C170.86 148.533 170.227 149.867 169.28 151.04C168.333 152.213 167.133 153.133 165.68 153.8C164.227 154.467 162.553 154.8 160.66 154.8ZM179.58 154V130.48H187.02V154H179.58ZM171.58 131.28V124.8H195.02V131.28H171.58ZM195.1 154V131.92H200.86V141.52H200.78C200.78 138.427 201.427 136 202.72 134.24C204.013 132.48 205.873 131.6 208.3 131.6H209.18V137.84H207.5C205.873 137.84 204.613 138.28 203.72 139.16C202.827 140.04 202.38 141.307 202.38 142.96V154H195.1ZM223.26 154V147.52H222.06V140.6C222.06 139.587 221.827 138.833 221.36 138.34C220.893 137.847 220.127 137.6 219.06 137.6C218.553 137.6 217.807 137.613 216.82 137.64C215.833 137.667 214.793 137.707 213.7 137.76C212.607 137.813 211.607 137.867 210.7 137.92V131.84C211.34 131.787 212.1 131.733 212.98 131.68C213.86 131.627 214.773 131.587 215.72 131.56C216.667 131.533 217.54 131.52 218.34 131.52C220.607 131.52 222.533 131.853 224.12 132.52C225.707 133.187 226.92 134.187 227.76 135.52C228.6 136.853 229.02 138.547 229.02 140.6V154H223.26ZM216.26 154.56C214.713 154.56 213.34 154.28 212.14 153.72C210.94 153.16 210 152.353 209.32 151.3C208.64 150.247 208.3 148.987 208.3 147.52C208.3 145.867 208.74 144.527 209.62 143.5C210.5 142.473 211.713 141.72 213.26 141.24C214.807 140.76 216.58 140.52 218.58 140.52H222.86V144.28H218.58C217.593 144.28 216.833 144.527 216.3 145.02C215.767 145.513 215.5 146.173 215.5 147C215.5 147.8 215.767 148.447 216.3 148.94C216.833 149.433 217.593 149.68 218.58 149.68C219.22 149.68 219.787 149.567 220.28 149.34C220.773 149.113 221.18 148.72 221.5 148.16C221.82 147.6 222.007 146.827 222.06 145.84L223.74 147.44C223.607 148.96 223.24 150.247 222.64 151.3C222.04 152.353 221.213 153.16 220.16 153.72C219.107 154.28 217.807 154.56 216.26 154.56ZM241.98 154.8C240.06 154.8 238.393 154.487 236.98 153.86C235.567 153.233 234.387 152.387 233.44 151.32C232.493 150.253 231.787 149.04 231.32 147.68C230.853 146.32 230.62 144.907 230.62 143.44V142.64C230.62 141.093 230.867 139.627 231.36 138.24C231.853 136.853 232.58 135.627 233.54 134.56C234.5 133.493 235.687 132.653 237.1 132.04C238.513 131.427 240.14 131.12 241.98 131.12C244.007 131.12 245.793 131.52 247.34 132.32C248.887 133.12 250.12 134.22 251.04 135.62C251.96 137.02 252.473 138.627 252.58 140.44H245.46C245.38 139.56 245.053 138.813 244.48 138.2C243.907 137.587 243.073 137.28 241.98 137.28C241.047 137.28 240.28 137.52 239.68 138C239.08 138.48 238.633 139.147 238.34 140C238.047 140.853 237.9 141.867 237.9 143.04C237.9 144.133 238.027 145.107 238.28 145.96C238.533 146.813 238.96 147.473 239.56 147.94C240.16 148.407 240.967 148.64 241.98 148.64C242.727 148.64 243.353 148.507 243.86 148.24C244.367 147.973 244.767 147.593 245.06 147.1C245.353 146.607 245.54 146.027 245.62 145.36H252.74C252.633 147.227 252.107 148.867 251.16 150.28C250.213 151.693 248.953 152.8 247.38 153.6C245.807 154.4 244.007 154.8 241.98 154.8ZM270.1 154L263.58 143.68H260.62L269.26 131.92H276.86L268.66 143V139.48L278.22 154H270.1ZM254.42 154V124.8H261.7V154H254.42ZM278.86 154V131.92H284.62V141.52H284.54C284.54 138.427 285.187 136 286.48 134.24C287.773 132.48 289.633 131.6 292.06 131.6H292.94V137.84H291.26C289.633 137.84 288.373 138.28 287.48 139.16C286.587 140.04 286.14 141.307 286.14 142.96V154H278.86Z" fill="white"/>
<defs>
<filter id="filter0_d_2_16" x="115" y="0" width="120" height="120" filterUnits="userSpaceOnUse" color-interpolation-filters="sRGB">
<feFlood flood-opacity="0" result="BackgroundImageFix"/>
<feColorMatrix in="SourceAlpha" type="matrix" values="0 0 0 0 0 0 0 0 0 0 0 0 0 0 0 0 0 0 127 0" result="hardAlpha"/>
<feOffset/>
<feGaussianBlur stdDeviation="10"/>
<feComposite in2="hardAlpha" operator="out"/>
<feColorMatrix type="matrix" values="0 0 0 0 0.709804 0 0 0 0 1 0 0 0 0 0.227451 0 0 0 0.4 0"/>
<feBlend mode="normal" in2="BackgroundImageFix" result="effect1_dropShadow_2_16"/>
<feBlend mode="normal" in="SourceGraphic" in2="effect1_dropShadow_2_16" result="shape"/>
</filter>
</defs>
</svg>
